<svg width="41" height="40" viewBox="0 0 41 40" fill="none" xmlns="http://www.w3.org/2000/svg">
<path d="M22.6104 11.6406L30.1104 19.1406C30.3447 19.375 30.501 19.6875 30.501 20C30.501 20.3906 30.3447 20.7031 30.1104 20.9375L22.6104 28.4375C22.1416 28.9062 21.2822 28.9062 20.8135 28.4375C20.3447 27.9688 20.3447 27.1094 20.8135 26.6406L26.2041 21.25H11.751C11.0479 21.25 10.501 20.7031 10.501 20C10.501 19.375 11.0479 18.75 11.751 18.75H26.2041L20.8135 13.4375C20.3447 12.9688 20.3447 12.1094 20.8135 11.6406C21.2822 11.1719 22.1416 11.1719 22.6104 11.6406ZM20.501 0C31.5166 0 40.501 8.98438 40.501 20C40.501 31.0938 31.5166 40 20.501 40C9.40723 40 0.500977 31.0938 0.500977 20C0.500977 8.98438 9.40723 0 20.501 0ZM20.501 37.5C30.1104 37.5 38.001 29.6875 38.001 20C38.001 10.3906 30.1104 2.5 20.501 2.5C10.8135 2.5 3.00098 10.3906 3.00098 20C3.00098 29.6875 10.8135 37.5 20.501 37.5Z" fill="#AAAAAA"/>
</svg>
