<svg width="41" height="40" viewBox="0 0 41 40" fill="none" xmlns="http://www.w3.org/2000/svg">
<path d="M29.251 18.75C29.876 18.75 30.501 19.375 30.501 20C30.501 20.7031 29.876 21.25 29.251 21.25H14.7197L20.1104 26.6406C20.5791 27.1094 20.5791 27.9688 20.1104 28.4375C19.6416 28.9062 18.7822 28.9062 18.3135 28.4375L10.8135 20.9375C10.5791 20.7031 10.501 20.3906 10.501 20C10.501 19.6875 10.5791 19.375 10.8135 19.1406L18.3135 11.6406C18.7822 11.1719 19.6416 11.1719 20.1104 11.6406C20.5791 12.1094 20.5791 12.9688 20.1104 13.4375L14.7197 18.75H29.251ZM20.501 0C31.5166 0 40.501 8.98438 40.501 20C40.501 31.0938 31.5166 40 20.501 40C9.40723 40 0.500977 31.0938 0.500977 20C0.500977 8.98438 9.40723 0 20.501 0ZM20.501 37.5C30.1104 37.5 38.001 29.6875 38.001 20C38.001 10.3906 30.1104 2.5 20.501 2.5C10.8135 2.5 3.00098 10.3906 3.00098 20C3.00098 29.6875 10.8135 37.5 20.501 37.5Z" fill="#AAAAAA"/>
</svg>
